:SAMPLES-PER-SECOND 30
:FULLY-SPECIFIED
:DEGREES
304
root  42.4014 39.3305 -4.39633 -9.95874 -58.7346 6.81467
RightUpLeg  11.9677 -9.07367 -4.79443
RightLeg  13.8378 2.09254 2.38279
RightFoot  -18.0353 -0.512749 -6.67479
RightToes  0.00048216 0.542163 -0.142577
Spine  11.5786 1.57392 3.81041
Spine1  10.2897 3.38641 -4.29726
HEad  11.5012 -2.0692 -6.78059
LeftShoulder1  7.407 -11.9287 -41.6418
LeftArm  -21.0226 30.526 -24.9379
LeftForeArm  21.014 -35.7964 -6.8348
LeftHand  -0.25398 0.0180481 5.50724
RightShoulder  5.04387 8.53562 35.9157
RightArm  -1.99342 -0.279422 36.3471
RightForeArm  -4.97174 31.4341 7.17406
RightHand  -1.12978 1.55958 -18.9355
LeftUpLeg  -15.4688 5.5127 -8.86851
LeftLeg  5.06198 17.3937 -4.87472
LeftFoot  -2.25346 0.441012 -5.37777
LeftToes  1.06244e-005 4.65856e-005 -8.18505e-006
305
root  41.2303 39.1186 -4.23895 -10.0608 -61.9487 6.59184
RightUpLeg  14.0087 -8.7628 -4.29644
RightLeg  13.4694 3.72222 2.65744
RightFoot  -18.784 -0.60366 -7.31482
RightToes  0.00048216 0.542163 -0.142577
Spine  10.5864 1.8988 3.75666
Spine1  10.9968 3.79269 -4.4514
HEad  11.3856 -0.380111 -6.7179
LeftShoulder1  7.33787 -11.6992 -41.8921
LeftArm  -21.412 31.2282 -24.1603
LeftForeArm  20.1643 -34.122 -6.4394
LeftHand  -0.25398 0.0180481 5.50724
RightShoulder  5.14388 8.71026 36.1299
RightArm  -0.216566 1.58679 37.7687
RightForeArm  -3.77027 30.3807 6.83829
RightHand  -1.12341 1.64509 -18.6064
LeftUpLeg  -15.1215 -2.335 -7.02933
LeftLeg  -2.39122 27.1309 -8.96206
LeftFoot  -2.25974 0.4125 -5.02149
LeftToes  1.06244e-005 4.65856e-005 -8.18505e-006
306
root  39.9724 38.8368 -4.07764 -9.78424 -64.7746 5.92598
RightUpLeg  16.0379 -8.70469 -3.76453
RightLeg  13.7261 4.62827 2.8298
RightFoot  -19.7306 -0.68666 -7.54082
RightToes  0.00048216 0.542163 -0.142577
Spine  9.80498 2.1101 3.63166
Spine1  11.3924 4.02246 -4.52673
HEad  11.1328 1.28985 -6.50932
LeftShoulder1  7.25287 -11.5022 -41.9535
LeftArm  -21.4748 31.8281 -23.6217
LeftForeArm  19.4971 -31.9375 -5.92286
LeftHand  -0.25398 0.0180481 5.50724
RightShoulder  5.23912 8.82784 36.4915
RightArm  1.28775 2.71522 39.2024
RightForeArm  -1.92437 29.2909 6.46686
RightHand  -1.074 1.5415 -18.0656
LeftUpLeg  -15.7945 -2.58576 -7.0421
LeftLeg  -5.53801 29.5698 -9.96426
LeftFoot  -2.68329 0.396008 -5.02409
LeftToes  1.06244e-005 4.65856e-005 -8.18505e-006
307
root  38.6258 38.5213 -3.90392 -9.22196 -66.9723 5.02261
RightUpLeg  18.081 -8.93039 -3.49312
RightLeg  14.3758 5.55815 3.13061
RightFoot  -20.6802 -0.694271 -6.78595
RightToes  0.00048216 0.542163 -0.142577
Spine  9.24807 2.2034 3.40904
Spine1  11.4498 4.16155 -4.6804
HEad  11.0383 2.74102 -6.22056
LeftShoulder1  7.15837 -11.3762 -41.7425
LeftArm  -20.9571 32.2305 -23.3377
LeftForeArm  19.1775 -29.3808 -5.32377
LeftHand  -0.25398 0.0180481 5.50724
RightShoulder  5.29601 8.84722 36.8745
RightArm  2.1786 2.61162 40.5321
RightForeArm  -0.409247 28.5185 6.19746
RightHand  -1.07607 1.52736 -18.132
LeftUpLeg  -16.4659 -2.30429 -6.71062
LeftLeg  -5.58928 32.4028 -10.2613
LeftFoot  -3.42187 0.359261 -4.87089
LeftToes  1.06244e-005 4.65856e-005 -8.18505e-006
308
root  37.1789 38.2084 -3.69671 -8.86338 -69.0997 4.42832
RightUpLeg  20.0296 -9.12976 -3.56563
RightLeg  15.4975 7.26338 3.40461
RightFoot  -21.0759 -0.617034 -5.56541
RightToes  0.00048216 0.542163 -0.142577
Spine  8.5786 2.42948 3.08191
Spine1  11.6861 4.57953 -5.08368
HEad  10.9541 4.04546 -5.83341
LeftShoulder1  7.01584 -11.1913 -41.4006
LeftArm  -20.1674 32.5122 -23.2412
LeftForeArm  19.3156 -27.1065 -4.79393
LeftHand  -0.25398 0.0180481 5.50724
RightShoulder  5.31988 8.84635 37.0646
RightArm  2.57405 1.19471 41.6714
RightForeArm  0.279812 28.1668 6.07613
RightHand  -1.12516 1.64932 -18.6267
LeftUpLeg  -16.622 -0.916795 -6.32284
LeftLeg  -3.56251 35.5319 -10.1609
LeftFoot  -3.5167 0.180367 -2.3252
LeftToes  1.06244e-005 4.65856e-005 -8.18505e-006
309
root  35.6254 37.943 -3.45633 -9.58727 -71.4814 5.08618
RightUpLeg  21.7388 -9.33817 -4.43965
RightLeg  17.2431 9.79461 3.81325
RightFoot  -20.4419 -0.489064 -4.42851
RightToes  0.00048216 0.542163 -0.142577
Spine  7.62271 2.94917 2.18644
Spine1  12.0441 5.29151 -5.55092
HEad  10.6629 5.53677 -5.2377
LeftShoulder1  6.80165 -10.8163 -41.1692
LeftArm  -19.6861 33.0567 -23.0756
LeftForeArm  19.9062 -25.7733 -4.46779
LeftHand  -0.25398 0.0180481 5.50724
RightShoulder  5.37867 8.93364 37.2294
RightArm  3.37075 -1.11243 42.3141
RightForeArm  0.273935 27.6314 5.94812
RightHand  -1.16258 1.83125 -18.7702
LeftUpLeg  -17.4853 3.35487 -6.83441
LeftLeg  2.16518 36.383 -7.53516
LeftFoot  -2.45059 -0.291771 3.76955
LeftToes  1.06244e-005 4.65856e-005 -8.18505e-006
310
root  34.0226 37.7718 -3.20257 -12.0413 -73.0071 7.66413
RightUpLeg  22.7364 -10.2921 -6.85266
RightLeg  20.3977 13.3665 5.38684
RightFoot  -18.4722 -0.267388 -2.35403
RightToes  0.00048216 0.542163 -0.142577
Spine  6.90471 3.35894 0.00500882
Spine1  11.659 5.57885 -5.53579
HEad  10.1276 7.53253 -4.53343
LeftShoulder1  6.57604 -10.3149 -41.2513
LeftArm  -19.6092 33.9506 -22.6565
LeftForeArm  20.6759 -25.1996 -4.3029
LeftHand  -0.25398 0.0180481 5.50724
RightShoulder  5.46211 9.03108 37.5485
RightArm  5.57785 -3.70923 42.331
RightForeArm  -0.133585 25.8421 5.51213
RightHand  -1.1468 1.91337 -18.3227
LeftUpLeg  -19.5631 13.7269 -10.7522
LeftLeg  9.93456 28.4764 -1.7768
LeftFoot  -0.579896 -1.10213 11.7166
LeftToes  1.06244e-005 4.65856e-005 -8.18505e-006
